<?xml version="1.0" encoding="utf-8" standalone="no"?>
<!DOCTYPE svg PUBLIC "-//W3C//DTD SVG 1.1//EN"
  "http://www.w3.org/Graphics/SVG/1.1/DTD/svg11.dtd">
<!-- Created with matplotlib (https://matplotlib.org/) -->
<svg height="576pt" version="1.1" viewBox="0 0 864 576" width="864pt" xmlns="http://www.w3.org/2000/svg" xmlns:xlink="http://www.w3.org/1999/xlink">
 <defs>
  <style type="text/css">
*{stroke-linecap:butt;stroke-linejoin:round;}
  </style>
 </defs>
 <g id="figure_1">
  <g id="patch_1">
   <path d="M 0 576 
L 864 576 
L 864 0 
L 0 0 
z
" style="fill:#ffffff;"/>
  </g>
  <g id="axes_1">
   <g id="patch_2">
    <path d="M 108 512.64 
L 777.6 512.64 
L 777.6 69.12 
L 108 69.12 
z
" style="fill:#ffffff;"/>
   </g>
   <g id="matplotlib.axis_1">
    <g id="xtick_1">
     <g id="line2d_1">
      <defs>
       <path d="M 0 0 
L 0 3.5 
" id="md504af598e" style="stroke:#000000;stroke-width:0.8;"/>
      </defs>
      <g>
       <use style="stroke:#000000;stroke-width:0.8;" x="186.49378" xlink:href="#md504af598e" y="512.64"/>
      </g>
     </g>
     <g id="text_1">
      <!-- 5 -->
      <defs>
       <path d="M 50.296875 72.90625 
L 50.296875 64.890625 
L 16.890625 64.890625 
L 16.890625 44 
Q 19.4375 45.75 22.828125 46.625 
Q 26.21875 47.515625 30.421875 47.515625 
Q 42.234375 47.515625 49.0625 40.96875 
Q 55.90625 34.421875 55.90625 23.09375 
Q 55.90625 11.53125 49 5.046875 
Q 42.09375 -1.421875 29.59375 -1.421875 
Q 24.5625 -1.421875 19.28125 -0.1875 
Q 14.015625 1.03125 8.5 3.515625 
L 8.5 17.671875 
L 14.015625 17.671875 
Q 14.453125 10.75 18.421875 7.078125 
Q 22.40625 3.421875 29.59375 3.421875 
Q 37.3125 3.421875 41.453125 8.5 
Q 45.609375 13.578125 45.609375 23.09375 
Q 45.609375 32.5625 41.484375 37.609375 
Q 37.359375 42.671875 29.59375 42.671875 
Q 25.203125 42.671875 21.84375 41.109375 
Q 18.5 39.546875 15.921875 36.28125 
L 11.71875 36.28125 
L 11.71875 72.90625 
z
" id="DejaVuSerif-53"/>
      </defs>
      <g transform="translate(183.31253 527.238438)scale(0.1 -0.1)">
       <use xlink:href="#DejaVuSerif-53"/>
      </g>
     </g>
    </g>
    <g id="xtick_2">
     <g id="line2d_2">
      <g>
       <use style="stroke:#000000;stroke-width:0.8;" x="266.589474" xlink:href="#md504af598e" y="512.64"/>
      </g>
     </g>
     <g id="text_2">
      <!-- 10 -->
      <defs>
       <path d="M 14.203125 0 
L 14.203125 5.171875 
L 26.90625 5.171875 
L 26.90625 65.828125 
L 12.203125 56.296875 
L 12.203125 62.703125 
L 29.984375 74.21875 
L 36.71875 74.21875 
L 36.71875 5.171875 
L 49.421875 5.171875 
L 49.421875 0 
z
" id="DejaVuSerif-49"/>
       <path d="M 31.78125 3.421875 
Q 39.265625 3.421875 42.96875 11.625 
Q 46.6875 19.828125 46.6875 36.375 
Q 46.6875 52.984375 42.96875 61.1875 
Q 39.265625 69.390625 31.78125 69.390625 
Q 24.3125 69.390625 20.59375 61.1875 
Q 16.890625 52.984375 16.890625 36.375 
Q 16.890625 19.828125 20.59375 11.625 
Q 24.3125 3.421875 31.78125 3.421875 
z
M 31.78125 -1.421875 
Q 19.921875 -1.421875 13.25 8.53125 
Q 6.59375 18.5 6.59375 36.375 
Q 6.59375 54.296875 13.25 64.25 
Q 19.921875 74.21875 31.78125 74.21875 
Q 43.703125 74.21875 50.34375 64.25 
Q 56.984375 54.296875 56.984375 36.375 
Q 56.984375 18.5 50.34375 8.53125 
Q 43.703125 -1.421875 31.78125 -1.421875 
z
" id="DejaVuSerif-48"/>
      </defs>
      <g transform="translate(260.226974 527.238438)scale(0.1 -0.1)">
       <use xlink:href="#DejaVuSerif-49"/>
       <use x="63.623047" xlink:href="#DejaVuSerif-48"/>
      </g>
     </g>
    </g>
    <g id="xtick_3">
     <g id="line2d_3">
      <g>
       <use style="stroke:#000000;stroke-width:0.8;" x="346.685167" xlink:href="#md504af598e" y="512.64"/>
      </g>
     </g>
     <g id="text_3">
      <!-- 15 -->
      <g transform="translate(340.322667 527.238438)scale(0.1 -0.1)">
       <use xlink:href="#DejaVuSerif-49"/>
       <use x="63.623047" xlink:href="#DejaVuSerif-53"/>
      </g>
     </g>
    </g>
    <g id="xtick_4">
     <g id="line2d_4">
      <g>
       <use style="stroke:#000000;stroke-width:0.8;" x="426.780861" xlink:href="#md504af598e" y="512.64"/>
      </g>
     </g>
     <g id="text_4">
      <!-- 20 -->
      <defs>
       <path d="M 12.796875 55.515625 
L 7.328125 55.515625 
L 7.328125 68.5 
Q 12.546875 71.296875 17.84375 72.75 
Q 23.140625 74.21875 28.21875 74.21875 
Q 39.59375 74.21875 46.1875 68.703125 
Q 52.78125 63.1875 52.78125 53.71875 
Q 52.78125 43.015625 37.84375 28.125 
Q 36.671875 27 36.078125 26.421875 
L 17.671875 8.015625 
L 48.09375 8.015625 
L 48.09375 17 
L 53.8125 17 
L 53.8125 0 
L 6.78125 0 
L 6.78125 5.328125 
L 28.90625 27.390625 
Q 36.234375 34.71875 39.359375 40.84375 
Q 42.484375 46.96875 42.484375 53.71875 
Q 42.484375 61.078125 38.640625 65.234375 
Q 34.8125 69.390625 28.078125 69.390625 
Q 21.09375 69.390625 17.28125 65.921875 
Q 13.484375 62.453125 12.796875 55.515625 
z
" id="DejaVuSerif-50"/>
      </defs>
      <g transform="translate(420.418361 527.238438)scale(0.1 -0.1)">
       <use xlink:href="#DejaVuSerif-50"/>
       <use x="63.623047" xlink:href="#DejaVuSerif-48"/>
      </g>
     </g>
    </g>
    <g id="xtick_5">
     <g id="line2d_5">
      <g>
       <use style="stroke:#000000;stroke-width:0.8;" x="506.876555" xlink:href="#md504af598e" y="512.64"/>
      </g>
     </g>
     <g id="text_5">
      <!-- 25 -->
      <g transform="translate(500.514055 527.238438)scale(0.1 -0.1)">
       <use xlink:href="#DejaVuSerif-50"/>
       <use x="63.623047" xlink:href="#DejaVuSerif-53"/>
      </g>
     </g>
    </g>
    <g id="xtick_6">
     <g id="line2d_6">
      <g>
       <use style="stroke:#000000;stroke-width:0.8;" x="586.972249" xlink:href="#md504af598e" y="512.64"/>
      </g>
     </g>
     <g id="text_6">
      <!-- 30 -->
      <defs>
       <path d="M 9.71875 69.828125 
Q 15.4375 71.96875 20.671875 73.09375 
Q 25.921875 74.21875 30.515625 74.21875 
Q 41.21875 74.21875 47.21875 69.59375 
Q 53.21875 64.984375 53.21875 56.78125 
Q 53.21875 50.203125 49.0625 45.78125 
Q 44.921875 41.359375 37.3125 39.796875 
Q 46.296875 38.53125 51.25 33.28125 
Q 56.203125 28.03125 56.203125 19.671875 
Q 56.203125 9.46875 49.34375 4.015625 
Q 42.484375 -1.421875 29.59375 -1.421875 
Q 23.875 -1.421875 18.421875 -0.1875 
Q 12.984375 1.03125 7.625 3.515625 
L 7.625 17.671875 
L 13.09375 17.671875 
Q 13.578125 10.640625 17.828125 7.03125 
Q 22.078125 3.421875 29.78125 3.421875 
Q 37.25 3.421875 41.578125 7.734375 
Q 45.90625 12.0625 45.90625 19.578125 
Q 45.90625 28.171875 41.453125 32.59375 
Q 37.015625 37.015625 28.421875 37.015625 
L 23.78125 37.015625 
L 23.78125 42 
L 26.21875 42 
Q 34.765625 42 39.03125 45.53125 
Q 43.3125 49.078125 43.3125 56.203125 
Q 43.3125 62.59375 39.796875 65.984375 
Q 36.28125 69.390625 29.6875 69.390625 
Q 23.09375 69.390625 19.453125 66.265625 
Q 15.828125 63.140625 15.1875 56.984375 
L 9.71875 56.984375 
z
" id="DejaVuSerif-51"/>
      </defs>
      <g transform="translate(580.609749 527.238438)scale(0.1 -0.1)">
       <use xlink:href="#DejaVuSerif-51"/>
       <use x="63.623047" xlink:href="#DejaVuSerif-48"/>
      </g>
     </g>
    </g>
    <g id="xtick_7">
     <g id="line2d_7">
      <g>
       <use style="stroke:#000000;stroke-width:0.8;" x="667.067943" xlink:href="#md504af598e" y="512.64"/>
      </g>
     </g>
     <g id="text_7">
      <!-- 35 -->
      <g transform="translate(660.705443 527.238438)scale(0.1 -0.1)">
       <use xlink:href="#DejaVuSerif-51"/>
       <use x="63.623047" xlink:href="#DejaVuSerif-53"/>
      </g>
     </g>
    </g>
    <g id="xtick_8">
     <g id="line2d_8">
      <g>
       <use style="stroke:#000000;stroke-width:0.8;" x="747.163636" xlink:href="#md504af598e" y="512.64"/>
      </g>
     </g>
     <g id="text_8">
      <!-- 40 -->
      <defs>
       <path d="M 34.90625 24.703125 
L 34.90625 63.484375 
L 10.015625 24.703125 
z
M 56.390625 0 
L 23.1875 0 
L 23.1875 5.171875 
L 34.90625 5.171875 
L 34.90625 19.484375 
L 3.078125 19.484375 
L 3.078125 24.8125 
L 35.015625 74.21875 
L 44.671875 74.21875 
L 44.671875 24.703125 
L 58.59375 24.703125 
L 58.59375 19.484375 
L 44.671875 19.484375 
L 44.671875 5.171875 
L 56.390625 5.171875 
z
" id="DejaVuSerif-52"/>
      </defs>
      <g transform="translate(740.801136 527.238438)scale(0.1 -0.1)">
       <use xlink:href="#DejaVuSerif-52"/>
       <use x="63.623047" xlink:href="#DejaVuSerif-48"/>
      </g>
     </g>
    </g>
    <g id="text_9">
     <!-- K Parameter -->
     <defs>
      <path d="M 5.515625 0 
L 5.515625 5.171875 
L 14.796875 5.171875 
L 14.796875 67.671875 
L 5.515625 67.671875 
L 5.515625 72.90625 
L 33.984375 72.90625 
L 33.984375 67.671875 
L 24.703125 67.671875 
L 24.703125 40.09375 
L 56.109375 67.671875 
L 48.1875 67.671875 
L 48.1875 72.90625 
L 72.40625 72.90625 
L 72.40625 67.671875 
L 64.203125 67.671875 
L 32.90625 40.1875 
L 67.921875 5.171875 
L 76.21875 5.171875 
L 76.21875 0 
L 59.28125 0 
L 24.703125 34.625 
L 24.703125 5.171875 
L 33.984375 5.171875 
L 33.984375 0 
z
" id="DejaVuSerif-75"/>
      <path id="DejaVuSerif-32"/>
      <path d="M 24.703125 37.109375 
L 37.59375 37.109375 
Q 44.875 37.109375 48.671875 41.03125 
Q 52.484375 44.96875 52.484375 52.390625 
Q 52.484375 59.859375 48.671875 63.765625 
Q 44.875 67.671875 37.59375 67.671875 
L 24.703125 67.671875 
z
M 5.515625 0 
L 5.515625 5.171875 
L 14.796875 5.171875 
L 14.796875 67.671875 
L 5.515625 67.671875 
L 5.515625 72.90625 
L 39.984375 72.90625 
Q 50.921875 72.90625 57.3125 67.359375 
Q 63.71875 61.8125 63.71875 52.390625 
Q 63.71875 43.015625 57.3125 37.453125 
Q 50.921875 31.890625 39.984375 31.890625 
L 24.703125 31.890625 
L 24.703125 5.171875 
L 35.984375 5.171875 
L 35.984375 0 
z
" id="DejaVuSerif-80"/>
      <path d="M 39.796875 16.3125 
L 39.796875 27.296875 
L 28.21875 27.296875 
Q 21.53125 27.296875 18.25 24.40625 
Q 14.984375 21.53125 14.984375 15.578125 
Q 14.984375 10.15625 18.296875 6.984375 
Q 21.625 3.8125 27.296875 3.8125 
Q 32.90625 3.8125 36.34375 7.28125 
Q 39.796875 10.75 39.796875 16.3125 
z
M 48.78125 32.421875 
L 48.78125 5.171875 
L 56.78125 5.171875 
L 56.78125 0 
L 39.796875 0 
L 39.796875 5.609375 
Q 36.8125 2 32.90625 0.28125 
Q 29 -1.421875 23.78125 -1.421875 
Q 15.140625 -1.421875 10.0625 3.171875 
Q 4.984375 7.765625 4.984375 15.578125 
Q 4.984375 23.640625 10.796875 28.078125 
Q 16.609375 32.515625 27.203125 32.515625 
L 39.796875 32.515625 
L 39.796875 36.078125 
Q 39.796875 42 36.203125 45.234375 
Q 32.625 48.484375 26.125 48.484375 
Q 20.75 48.484375 17.578125 46.046875 
Q 14.40625 43.609375 13.625 38.8125 
L 8.984375 38.8125 
L 8.984375 49.3125 
Q 13.671875 51.3125 18.09375 52.3125 
Q 22.515625 53.328125 26.703125 53.328125 
Q 37.5 53.328125 43.140625 47.96875 
Q 48.78125 42.625 48.78125 32.421875 
z
" id="DejaVuSerif-97"/>
      <path d="M 47.796875 52 
L 47.796875 39.015625 
L 42.625 39.015625 
Q 42.390625 42.875 40.484375 44.78125 
Q 38.578125 46.6875 34.90625 46.6875 
Q 28.265625 46.6875 24.71875 42.09375 
Q 21.1875 37.5 21.1875 28.90625 
L 21.1875 5.171875 
L 31.59375 5.171875 
L 31.59375 0 
L 4.109375 0 
L 4.109375 5.171875 
L 12.203125 5.171875 
L 12.203125 46.78125 
L 3.609375 46.78125 
L 3.609375 51.90625 
L 21.1875 51.90625 
L 21.1875 42.671875 
Q 23.828125 48.09375 27.96875 50.703125 
Q 32.125 53.328125 38.09375 53.328125 
Q 40.28125 53.328125 42.703125 52.984375 
Q 45.125 52.640625 47.796875 52 
z
" id="DejaVuSerif-114"/>
      <path d="M 51.8125 41.796875 
Q 54.390625 47.515625 58.421875 50.421875 
Q 62.453125 53.328125 67.828125 53.328125 
Q 75.984375 53.328125 79.984375 48.265625 
Q 83.984375 43.21875 83.984375 33.015625 
L 83.984375 5.171875 
L 92.09375 5.171875 
L 92.09375 0 
L 67.1875 0 
L 67.1875 5.171875 
L 75 5.171875 
L 75 31.984375 
Q 75 39.9375 72.65625 43.3125 
Q 70.3125 46.6875 64.890625 46.6875 
Q 58.890625 46.6875 55.734375 42.140625 
Q 52.59375 37.59375 52.59375 28.90625 
L 52.59375 5.171875 
L 60.40625 5.171875 
L 60.40625 0 
L 35.796875 0 
L 35.796875 5.171875 
L 43.609375 5.171875 
L 43.609375 32.328125 
Q 43.609375 40.09375 41.265625 43.390625 
Q 38.921875 46.6875 33.5 46.6875 
Q 27.484375 46.6875 24.328125 42.140625 
Q 21.1875 37.59375 21.1875 28.90625 
L 21.1875 5.171875 
L 29 5.171875 
L 29 0 
L 4.109375 0 
L 4.109375 5.171875 
L 12.203125 5.171875 
L 12.203125 46.78125 
L 3.609375 46.78125 
L 3.609375 51.90625 
L 21.1875 51.90625 
L 21.1875 42.671875 
Q 23.6875 47.859375 27.53125 50.59375 
Q 31.390625 53.328125 36.28125 53.328125 
Q 42.328125 53.328125 46.375 50.3125 
Q 50.4375 47.3125 51.8125 41.796875 
z
" id="DejaVuSerif-109"/>
      <path d="M 54.203125 25 
L 15.484375 25 
L 15.484375 24.609375 
Q 15.484375 14.109375 19.4375 8.765625 
Q 23.390625 3.421875 31.109375 3.421875 
Q 37.015625 3.421875 40.796875 6.515625 
Q 44.578125 9.625 46.09375 15.71875 
L 53.328125 15.71875 
Q 51.171875 7.171875 45.375 2.875 
Q 39.59375 -1.421875 30.171875 -1.421875 
Q 18.796875 -1.421875 11.890625 6.078125 
Q 4.984375 13.578125 4.984375 25.984375 
Q 4.984375 38.28125 11.765625 45.796875 
Q 18.5625 53.328125 29.59375 53.328125 
Q 41.359375 53.328125 47.65625 46.0625 
Q 53.953125 38.8125 54.203125 25 
z
M 43.609375 30.171875 
Q 43.3125 39.265625 39.765625 43.875 
Q 36.234375 48.484375 29.59375 48.484375 
Q 23.390625 48.484375 19.828125 43.84375 
Q 16.265625 39.203125 15.484375 30.171875 
z
" id="DejaVuSerif-101"/>
      <path d="M 10.796875 46.6875 
L 2.875 46.6875 
L 2.875 51.90625 
L 10.796875 51.90625 
L 10.796875 68.015625 
L 19.828125 68.015625 
L 19.828125 51.90625 
L 36.71875 51.90625 
L 36.71875 46.6875 
L 19.828125 46.6875 
L 19.828125 13.71875 
Q 19.828125 7.125 21.09375 5.265625 
Q 22.359375 3.421875 25.78125 3.421875 
Q 29.296875 3.421875 30.90625 5.484375 
Q 32.515625 7.5625 32.625 12.203125 
L 39.40625 12.203125 
Q 39.015625 5.125 35.546875 1.84375 
Q 32.078125 -1.421875 25 -1.421875 
Q 17.234375 -1.421875 14.015625 2.015625 
Q 10.796875 5.46875 10.796875 13.71875 
z
" id="DejaVuSerif-116"/>
     </defs>
     <g transform="translate(385.025625 546.995312)scale(0.18 -0.18)">
      <use xlink:href="#DejaVuSerif-75"/>
      <use x="74.707031" xlink:href="#DejaVuSerif-32"/>
      <use x="106.494141" xlink:href="#DejaVuSerif-80"/>
      <use x="173.716797" xlink:href="#DejaVuSerif-97"/>
      <use x="233.335938" xlink:href="#DejaVuSerif-114"/>
      <use x="281.138672" xlink:href="#DejaVuSerif-97"/>
      <use x="340.757812" xlink:href="#DejaVuSerif-109"/>
      <use x="435.582031" xlink:href="#DejaVuSerif-101"/>
      <use x="494.761719" xlink:href="#DejaVuSerif-116"/>
      <use x="534.947266" xlink:href="#DejaVuSerif-101"/>
      <use x="594.126953" xlink:href="#DejaVuSerif-114"/>
     </g>
    </g>
   </g>
   <g id="matplotlib.axis_2">
    <g id="ytick_1">
     <g id="line2d_9">
      <defs>
       <path d="M 0 0 
L -3.5 0 
" id="ma09dc51bc1" style="stroke:#000000;stroke-width:0.8;"/>
      </defs>
      <g>
       <use style="stroke:#000000;stroke-width:0.8;" x="108" xlink:href="#ma09dc51bc1" y="499.119098"/>
      </g>
     </g>
     <g id="text_10">
      <!-- 0.82 -->
      <defs>
       <path d="M 9.421875 5.078125 
Q 9.421875 7.8125 11.28125 9.71875 
Q 13.140625 11.625 15.921875 11.625 
Q 18.609375 11.625 20.5 9.71875 
Q 22.40625 7.8125 22.40625 5.078125 
Q 22.40625 2.390625 20.5 0.484375 
Q 18.609375 -1.421875 15.921875 -1.421875 
Q 13.140625 -1.421875 11.28125 0.453125 
Q 9.421875 2.34375 9.421875 5.078125 
z
" id="DejaVuSerif-46"/>
       <path d="M 46.578125 19.921875 
Q 46.578125 27.734375 42.6875 32.046875 
Q 38.8125 36.375 31.78125 36.375 
Q 24.75 36.375 20.875 32.046875 
Q 17 27.734375 17 19.921875 
Q 17 12.0625 20.875 7.734375 
Q 24.75 3.421875 31.78125 3.421875 
Q 38.8125 3.421875 42.6875 7.734375 
Q 46.578125 12.0625 46.578125 19.921875 
z
M 44.578125 55.328125 
Q 44.578125 61.96875 41.203125 65.671875 
Q 37.84375 69.390625 31.78125 69.390625 
Q 25.78125 69.390625 22.390625 65.671875 
Q 19 61.96875 19 55.328125 
Q 19 48.640625 22.390625 44.921875 
Q 25.78125 41.21875 31.78125 41.21875 
Q 37.84375 41.21875 41.203125 44.921875 
Q 44.578125 48.640625 44.578125 55.328125 
z
M 39.3125 38.8125 
Q 47.609375 37.703125 52.25 32.6875 
Q 56.890625 27.6875 56.890625 19.921875 
Q 56.890625 9.671875 50.390625 4.125 
Q 43.890625 -1.421875 31.78125 -1.421875 
Q 19.734375 -1.421875 13.203125 4.125 
Q 6.6875 9.671875 6.6875 19.921875 
Q 6.6875 27.6875 11.328125 32.6875 
Q 15.96875 37.703125 24.3125 38.8125 
Q 16.9375 40.140625 13 44.40625 
Q 9.078125 48.6875 9.078125 55.328125 
Q 9.078125 64.109375 15.125 69.15625 
Q 21.1875 74.21875 31.78125 74.21875 
Q 42.390625 74.21875 48.4375 69.15625 
Q 54.5 64.109375 54.5 55.328125 
Q 54.5 48.6875 50.5625 44.40625 
Q 46.625 40.140625 39.3125 38.8125 
z
" id="DejaVuSerif-56"/>
      </defs>
      <g transform="translate(78.734375 502.918317)scale(0.1 -0.1)">
       <use xlink:href="#DejaVuSerif-48"/>
       <use x="63.623047" xlink:href="#DejaVuSerif-46"/>
       <use x="95.410156" xlink:href="#DejaVuSerif-56"/>
       <use x="159.033203" xlink:href="#DejaVuSerif-50"/>
      </g>
     </g>
    </g>
    <g id="ytick_2">
     <g id="line2d_10">
      <g>
       <use style="stroke:#000000;stroke-width:0.8;" x="108" xlink:href="#ma09dc51bc1" y="444.307372"/>
      </g>
     </g>
     <g id="text_11">
      <!-- 0.83 -->
      <g transform="translate(78.734375 448.106591)scale(0.1 -0.1)">
       <use xlink:href="#DejaVuSerif-48"/>
       <use x="63.623047" xlink:href="#DejaVuSerif-46"/>
       <use x="95.410156" xlink:href="#DejaVuSerif-56"/>
       <use x="159.033203" xlink:href="#DejaVuSerif-51"/>
      </g>
     </g>
    </g>
    <g id="ytick_3">
     <g id="line2d_11">
      <g>
       <use style="stroke:#000000;stroke-width:0.8;" x="108" xlink:href="#ma09dc51bc1" y="389.495645"/>
      </g>
     </g>
     <g id="text_12">
      <!-- 0.84 -->
      <g transform="translate(78.734375 393.294864)scale(0.1 -0.1)">
       <use xlink:href="#DejaVuSerif-48"/>
       <use x="63.623047" xlink:href="#DejaVuSerif-46"/>
       <use x="95.410156" xlink:href="#DejaVuSerif-56"/>
       <use x="159.033203" xlink:href="#DejaVuSerif-52"/>
      </g>
     </g>
    </g>
    <g id="ytick_4">
     <g id="line2d_12">
      <g>
       <use style="stroke:#000000;stroke-width:0.8;" x="108" xlink:href="#ma09dc51bc1" y="334.683919"/>
      </g>
     </g>
     <g id="text_13">
      <!-- 0.85 -->
      <g transform="translate(78.734375 338.483138)scale(0.1 -0.1)">
       <use xlink:href="#DejaVuSerif-48"/>
       <use x="63.623047" xlink:href="#DejaVuSerif-46"/>
       <use x="95.410156" xlink:href="#DejaVuSerif-56"/>
       <use x="159.033203" xlink:href="#DejaVuSerif-53"/>
      </g>
     </g>
    </g>
    <g id="ytick_5">
     <g id="line2d_13">
      <g>
       <use style="stroke:#000000;stroke-width:0.8;" x="108" xlink:href="#ma09dc51bc1" y="279.872192"/>
      </g>
     </g>
     <g id="text_14">
      <!-- 0.86 -->
      <defs>
       <path d="M 32.71875 3.421875 
Q 39.59375 3.421875 43.296875 8.46875 
Q 47.015625 13.53125 47.015625 23 
Q 47.015625 32.46875 43.296875 37.515625 
Q 39.59375 42.578125 32.71875 42.578125 
Q 25.734375 42.578125 22.0625 37.6875 
Q 18.40625 32.8125 18.40625 23.578125 
Q 18.40625 13.875 22.109375 8.640625 
Q 25.828125 3.421875 32.71875 3.421875 
z
M 16.796875 40.140625 
Q 20.125 43.796875 24.3125 45.59375 
Q 28.515625 47.40625 33.796875 47.40625 
Q 44.671875 47.40625 51 40.859375 
Q 57.328125 34.328125 57.328125 23 
Q 57.328125 11.921875 50.515625 5.25 
Q 43.703125 -1.421875 32.328125 -1.421875 
Q 19.96875 -1.421875 13.328125 7.78125 
Q 6.6875 17 6.6875 34.078125 
Q 6.6875 53.21875 14.546875 63.71875 
Q 22.40625 74.21875 36.71875 74.21875 
Q 40.578125 74.21875 44.828125 73.484375 
Q 49.078125 72.75 53.515625 71.296875 
L 53.515625 59.28125 
L 48 59.28125 
Q 47.40625 64.203125 44.234375 66.796875 
Q 41.0625 69.390625 35.6875 69.390625 
Q 26.21875 69.390625 21.578125 62.203125 
Q 16.9375 55.03125 16.796875 40.140625 
z
" id="DejaVuSerif-54"/>
      </defs>
      <g transform="translate(78.734375 283.671411)scale(0.1 -0.1)">
       <use xlink:href="#DejaVuSerif-48"/>
       <use x="63.623047" xlink:href="#DejaVuSerif-46"/>
       <use x="95.410156" xlink:href="#DejaVuSerif-56"/>
       <use x="159.033203" xlink:href="#DejaVuSerif-54"/>
      </g>
     </g>
    </g>
    <g id="ytick_6">
     <g id="line2d_14">
      <g>
       <use style="stroke:#000000;stroke-width:0.8;" x="108" xlink:href="#ma09dc51bc1" y="225.060466"/>
      </g>
     </g>
     <g id="text_15">
      <!-- 0.87 -->
      <defs>
       <path d="M 56.390625 67.921875 
L 27.875 0 
L 20.609375 0 
L 47.796875 64.890625 
L 14.109375 64.890625 
L 14.109375 55.90625 
L 8.40625 55.90625 
L 8.40625 72.90625 
L 56.390625 72.90625 
z
" id="DejaVuSerif-55"/>
      </defs>
      <g transform="translate(78.734375 228.859685)scale(0.1 -0.1)">
       <use xlink:href="#DejaVuSerif-48"/>
       <use x="63.623047" xlink:href="#DejaVuSerif-46"/>
       <use x="95.410156" xlink:href="#DejaVuSerif-56"/>
       <use x="159.033203" xlink:href="#DejaVuSerif-55"/>
      </g>
     </g>
    </g>
    <g id="ytick_7">
     <g id="line2d_15">
      <g>
       <use style="stroke:#000000;stroke-width:0.8;" x="108" xlink:href="#ma09dc51bc1" y="170.24874"/>
      </g>
     </g>
     <g id="text_16">
      <!-- 0.88 -->
      <g transform="translate(78.734375 174.047958)scale(0.1 -0.1)">
       <use xlink:href="#DejaVuSerif-48"/>
       <use x="63.623047" xlink:href="#DejaVuSerif-46"/>
       <use x="95.410156" xlink:href="#DejaVuSerif-56"/>
       <use x="159.033203" xlink:href="#DejaVuSerif-56"/>
      </g>
     </g>
    </g>
    <g id="ytick_8">
     <g id="line2d_16">
      <g>
       <use style="stroke:#000000;stroke-width:0.8;" x="108" xlink:href="#ma09dc51bc1" y="115.437013"/>
      </g>
     </g>
     <g id="text_17">
      <!-- 0.89 -->
      <defs>
       <path d="M 46.78125 32.671875 
Q 43.5 29 39.25 27.1875 
Q 35.015625 25.390625 29.6875 25.390625 
Q 18.84375 25.390625 12.5625 31.9375 
Q 6.296875 38.484375 6.296875 49.8125 
Q 6.296875 60.890625 13.109375 67.546875 
Q 19.921875 74.21875 31.296875 74.21875 
Q 43.65625 74.21875 50.265625 65.015625 
Q 56.890625 55.8125 56.890625 38.71875 
Q 56.890625 19.578125 49.015625 9.078125 
Q 41.15625 -1.421875 26.90625 -1.421875 
Q 23.046875 -1.421875 18.796875 -0.6875 
Q 14.546875 0.046875 10.109375 1.515625 
L 10.109375 13.625 
L 15.578125 13.625 
Q 16.21875 8.6875 19.390625 6.046875 
Q 22.5625 3.421875 27.875 3.421875 
Q 37.359375 3.421875 41.984375 10.5625 
Q 46.625 17.71875 46.78125 32.671875 
z
M 30.90625 69.390625 
Q 23.96875 69.390625 20.28125 64.328125 
Q 16.609375 59.28125 16.609375 49.8125 
Q 16.609375 40.328125 20.28125 35.25 
Q 23.96875 30.171875 30.90625 30.171875 
Q 37.84375 30.171875 41.53125 35.078125 
Q 45.21875 39.984375 45.21875 49.21875 
Q 45.21875 58.9375 41.5 64.15625 
Q 37.796875 69.390625 30.90625 69.390625 
z
" id="DejaVuSerif-57"/>
      </defs>
      <g transform="translate(78.734375 119.236232)scale(0.1 -0.1)">
       <use xlink:href="#DejaVuSerif-48"/>
       <use x="63.623047" xlink:href="#DejaVuSerif-46"/>
       <use x="95.410156" xlink:href="#DejaVuSerif-56"/>
       <use x="159.033203" xlink:href="#DejaVuSerif-57"/>
      </g>
     </g>
    </g>
    <g id="text_18">
     <!-- Percentage -->
     <defs>
      <path d="M 51.421875 15.578125 
Q 49.515625 7.28125 44.09375 2.921875 
Q 38.671875 -1.421875 30.078125 -1.421875 
Q 18.75 -1.421875 11.859375 6.078125 
Q 4.984375 13.578125 4.984375 25.984375 
Q 4.984375 38.421875 11.859375 45.875 
Q 18.75 53.328125 30.078125 53.328125 
Q 35.015625 53.328125 39.890625 52.171875 
Q 44.78125 51.03125 49.703125 48.6875 
L 49.703125 35.40625 
L 44.484375 35.40625 
Q 43.453125 42.234375 40.015625 45.359375 
Q 36.578125 48.484375 30.171875 48.484375 
Q 22.90625 48.484375 19.1875 42.84375 
Q 15.484375 37.203125 15.484375 25.984375 
Q 15.484375 14.75 19.171875 9.078125 
Q 22.859375 3.421875 30.171875 3.421875 
Q 35.984375 3.421875 39.453125 6.4375 
Q 42.921875 9.46875 44.1875 15.578125 
z
" id="DejaVuSerif-99"/>
      <path d="M 4.109375 0 
L 4.109375 5.171875 
L 12.203125 5.171875 
L 12.203125 46.6875 
L 3.609375 46.6875 
L 3.609375 51.90625 
L 21.1875 51.90625 
L 21.1875 42.671875 
Q 23.6875 47.953125 27.65625 50.640625 
Q 31.640625 53.328125 36.921875 53.328125 
Q 45.515625 53.328125 49.5625 48.390625 
Q 53.609375 43.453125 53.609375 33.015625 
L 53.609375 5.171875 
L 61.625 5.171875 
L 61.625 0 
L 36.8125 0 
L 36.8125 5.171875 
L 44.578125 5.171875 
L 44.578125 30.171875 
Q 44.578125 39.703125 42.234375 43.234375 
Q 39.890625 46.78125 33.984375 46.78125 
Q 27.734375 46.78125 24.453125 42.203125 
Q 21.1875 37.640625 21.1875 28.90625 
L 21.1875 5.171875 
L 29 5.171875 
L 29 0 
z
" id="DejaVuSerif-110"/>
      <path d="M 52.484375 46.6875 
L 52.484375 1.125 
Q 52.484375 -10.0625 46.328125 -16.140625 
Q 40.1875 -22.21875 28.8125 -22.21875 
Q 23.6875 -22.21875 19 -21.28125 
Q 14.3125 -20.359375 10.015625 -18.5 
L 10.015625 -7.625 
L 14.703125 -7.625 
Q 15.578125 -12.703125 18.84375 -15.046875 
Q 22.125 -17.390625 28.21875 -17.390625 
Q 36.140625 -17.390625 39.8125 -12.921875 
Q 43.5 -8.453125 43.5 1.125 
L 43.5 8.109375 
Q 40.875 3.21875 36.796875 0.890625 
Q 32.71875 -1.421875 26.703125 -1.421875 
Q 17.140625 -1.421875 11.0625 6.171875 
Q 4.984375 13.765625 4.984375 25.984375 
Q 4.984375 38.1875 11.03125 45.75 
Q 17.09375 53.328125 26.703125 53.328125 
Q 32.71875 53.328125 36.796875 51 
Q 40.875 48.6875 43.5 43.796875 
L 43.5 51.90625 
L 61.078125 51.90625 
L 61.078125 46.6875 
z
M 43.5 28.515625 
Q 43.5 37.84375 39.90625 42.765625 
Q 36.328125 47.703125 29.5 47.703125 
Q 22.5625 47.703125 19.015625 42.234375 
Q 15.484375 36.765625 15.484375 25.984375 
Q 15.484375 15.234375 19.015625 9.71875 
Q 22.5625 4.203125 29.5 4.203125 
Q 36.328125 4.203125 39.90625 9.109375 
Q 43.5 14.015625 43.5 23.390625 
z
" id="DejaVuSerif-103"/>
     </defs>
     <g transform="translate(70.735 342.793125)rotate(-90)scale(0.18 -0.18)">
      <use xlink:href="#DejaVuSerif-80"/>
      <use x="67.222656" xlink:href="#DejaVuSerif-101"/>
      <use x="126.402344" xlink:href="#DejaVuSerif-114"/>
      <use x="174.205078" xlink:href="#DejaVuSerif-99"/>
      <use x="230.210938" xlink:href="#DejaVuSerif-101"/>
      <use x="289.390625" xlink:href="#DejaVuSerif-110"/>
      <use x="353.794922" xlink:href="#DejaVuSerif-116"/>
      <use x="393.980469" xlink:href="#DejaVuSerif-97"/>
      <use x="453.599609" xlink:href="#DejaVuSerif-103"/>
      <use x="517.613281" xlink:href="#DejaVuSerif-101"/>
     </g>
    </g>
   </g>
   <g id="line2d_17">
    <path clip-path="url(#p2d4945970f)" d="M 747.163636 412.229621 
L 731.144498 404.007585 
L 715.125359 389.399377 
L 699.10622 376.971827 
L 683.087081 400.818487 
L 667.067943 377.37273 
L 651.048804 362.349435 
L 635.029665 370.158019 
L 619.010526 301.108379 
L 602.991388 321.84504 
L 586.972249 312.067564 
L 570.95311 322.747071 
L 554.933971 275.25196 
L 538.914833 238.923316 
L 522.895694 270.786231 
L 506.876555 242.402444 
L 490.857416 220.927105 
L 474.838278 189.010174 
L 458.819139 191.967103 
L 442.8 162.386172 
L 426.780861 134.555902 
L 410.761722 143.518953 
L 394.742584 147.593487 
L 378.723445 175.740049 
L 362.704306 172.219619 
L 346.685167 175.730256 
L 330.666029 181.294281 
L 314.64689 186.285491 
L 298.627751 159.3755 
L 282.608612 169.505673 
L 266.589474 192.676944 
L 250.570335 179.248642 
L 234.551196 178.096456 
L 218.532057 89.28 
L 202.512919 158.143555 
L 186.49378 135.999403 
L 170.474641 155.215776 
L 154.455502 135.644256 
L 138.436364 135.644256 
" style="fill:none;stroke:#0000cd;stroke-linecap:square;stroke-width:1.5;"/>
    <defs>
     <path d="M 0 3 
C 0.795609 3 1.55874 2.683901 2.12132 2.12132 
C 2.683901 1.55874 3 0.795609 3 0 
C 3 -0.795609 2.683901 -1.55874 2.12132 -2.12132 
C 1.55874 -2.683901 0.795609 -3 0 -3 
C -0.795609 -3 -1.55874 -2.683901 -2.12132 -2.12132 
C -2.683901 -1.55874 -3 -0.795609 -3 0 
C -3 0.795609 -2.683901 1.55874 -2.12132 2.12132 
C -1.55874 2.683901 -0.795609 3 0 3 
z
" id="mf90b6b338d" style="stroke:#0000cd;"/>
    </defs>
    <g clip-path="url(#p2d4945970f)">
     <use style="fill:#0000cd;stroke:#0000cd;" x="747.163636" xlink:href="#mf90b6b338d" y="412.229621"/>
     <use style="fill:#0000cd;stroke:#0000cd;" x="731.144498" xlink:href="#mf90b6b338d" y="404.007585"/>
     <use style="fill:#0000cd;stroke:#0000cd;" x="715.125359" xlink:href="#mf90b6b338d" y="389.399377"/>
     <use style="fill:#0000cd;stroke:#0000cd;" x="699.10622" xlink:href="#mf90b6b338d" y="376.971827"/>
     <use style="fill:#0000cd;stroke:#0000cd;" x="683.087081" xlink:href="#mf90b6b338d" y="400.818487"/>
     <use style="fill:#0000cd;stroke:#0000cd;" x="667.067943" xlink:href="#mf90b6b338d" y="377.37273"/>
     <use style="fill:#0000cd;stroke:#0000cd;" x="651.048804" xlink:href="#mf90b6b338d" y="362.349435"/>
     <use style="fill:#0000cd;stroke:#0000cd;" x="635.029665" xlink:href="#mf90b6b338d" y="370.158019"/>
     <use style="fill:#0000cd;stroke:#0000cd;" x="619.010526" xlink:href="#mf90b6b338d" y="301.108379"/>
     <use style="fill:#0000cd;stroke:#0000cd;" x="602.991388" xlink:href="#mf90b6b338d" y="321.84504"/>
     <use style="fill:#0000cd;stroke:#0000cd;" x="586.972249" xlink:href="#mf90b6b338d" y="312.067564"/>
     <use style="fill:#0000cd;stroke:#0000cd;" x="570.95311" xlink:href="#mf90b6b338d" y="322.747071"/>
     <use style="fill:#0000cd;stroke:#0000cd;" x="554.933971" xlink:href="#mf90b6b338d" y="275.25196"/>
     <use style="fill:#0000cd;stroke:#0000cd;" x="538.914833" xlink:href="#mf90b6b338d" y="238.923316"/>
     <use style="fill:#0000cd;stroke:#0000cd;" x="522.895694" xlink:href="#mf90b6b338d" y="270.786231"/>
     <use style="fill:#0000cd;stroke:#0000cd;" x="506.876555" xlink:href="#mf90b6b338d" y="242.402444"/>
     <use style="fill:#0000cd;stroke:#0000cd;" x="490.857416" xlink:href="#mf90b6b338d" y="220.927105"/>
     <use style="fill:#0000cd;stroke:#0000cd;" x="474.838278" xlink:href="#mf90b6b338d" y="189.010174"/>
     <use style="fill:#0000cd;stroke:#0000cd;" x="458.819139" xlink:href="#mf90b6b338d" y="191.967103"/>
     <use style="fill:#0000cd;stroke:#0000cd;" x="442.8" xlink:href="#mf90b6b338d" y="162.386172"/>
     <use style="fill:#0000cd;stroke:#0000cd;" x="426.780861" xlink:href="#mf90b6b338d" y="134.555902"/>
     <use style="fill:#0000cd;stroke:#0000cd;" x="410.761722" xlink:href="#mf90b6b338d" y="143.518953"/>
     <use style="fill:#0000cd;stroke:#0000cd;" x="394.742584" xlink:href="#mf90b6b338d" y="147.593487"/>
     <use style="fill:#0000cd;stroke:#0000cd;" x="378.723445" xlink:href="#mf90b6b338d" y="175.740049"/>
     <use style="fill:#0000cd;stroke:#0000cd;" x="362.704306" xlink:href="#mf90b6b338d" y="172.219619"/>
     <use style="fill:#0000cd;stroke:#0000cd;" x="346.685167" xlink:href="#mf90b6b338d" y="175.730256"/>
     <use style="fill:#0000cd;stroke:#0000cd;" x="330.666029" xlink:href="#mf90b6b338d" y="181.294281"/>
     <use style="fill:#0000cd;stroke:#0000cd;" x="314.64689" xlink:href="#mf90b6b338d" y="186.285491"/>
     <use style="fill:#0000cd;stroke:#0000cd;" x="298.627751" xlink:href="#mf90b6b338d" y="159.3755"/>
     <use style="fill:#0000cd;stroke:#0000cd;" x="282.608612" xlink:href="#mf90b6b338d" y="169.505673"/>
     <use style="fill:#0000cd;stroke:#0000cd;" x="266.589474" xlink:href="#mf90b6b338d" y="192.676944"/>
     <use style="fill:#0000cd;stroke:#0000cd;" x="250.570335" xlink:href="#mf90b6b338d" y="179.248642"/>
     <use style="fill:#0000cd;stroke:#0000cd;" x="234.551196" xlink:href="#mf90b6b338d" y="178.096456"/>
     <use style="fill:#0000cd;stroke:#0000cd;" x="218.532057" xlink:href="#mf90b6b338d" y="89.28"/>
     <use style="fill:#0000cd;stroke:#0000cd;" x="202.512919" xlink:href="#mf90b6b338d" y="158.143555"/>
     <use style="fill:#0000cd;stroke:#0000cd;" x="186.49378" xlink:href="#mf90b6b338d" y="135.999403"/>
     <use style="fill:#0000cd;stroke:#0000cd;" x="170.474641" xlink:href="#mf90b6b338d" y="155.215776"/>
     <use style="fill:#0000cd;stroke:#0000cd;" x="154.455502" xlink:href="#mf90b6b338d" y="135.644256"/>
     <use style="fill:#0000cd;stroke:#0000cd;" x="138.436364" xlink:href="#mf90b6b338d" y="135.644256"/>
    </g>
   </g>
   <g id="line2d_18">
    <path clip-path="url(#p2d4945970f)" d="M 747.163636 483.331699 
L 731.144498 492.48 
L 715.125359 478.425711 
L 699.10622 462.777302 
L 683.087081 489.844821 
L 667.067943 464.891952 
L 651.048804 450.837663 
L 635.029665 467.006601 
L 619.010526 391.627464 
L 602.991388 420.441275 
L 586.972249 406.907516 
L 570.95311 422.555925 
L 554.933971 397.603056 
L 538.914833 372.650187 
L 522.895694 399.717706 
L 506.876555 372.129657 
L 490.857416 349.443609 
L 474.838278 307.2391 
L 458.819139 325.171331 
L 442.8 301.20348 
L 426.780861 274.13596 
L 410.761722 287.149191 
L 394.742584 287.66972 
L 378.723445 315.257769 
L 362.704306 312.622589 
L 346.685167 313.143119 
L 330.666029 326.676878 
L 314.64689 326.676878 
L 298.627751 289.78437 
L 282.608612 305.43278 
L 266.589474 303.669487 
L 250.570335 272.491172 
L 234.551196 259.989362 
L 218.532057 193.166424 
L 202.512919 227.462876 
L 186.49378 184.79241 
L 170.474641 185.271297 
L 154.455502 229.303031 
L 138.436364 229.303031 
" style="fill:none;stroke:#b22222;stroke-linecap:square;stroke-width:1.5;"/>
    <defs>
     <path d="M -3 3 
L 3 -3 
M -3 -3 
L 3 3 
" id="m77ef0d9c93" style="stroke:#b22222;"/>
    </defs>
    <g clip-path="url(#p2d4945970f)">
     <use style="fill:#b22222;stroke:#b22222;" x="747.163636" xlink:href="#m77ef0d9c93" y="483.331699"/>
     <use style="fill:#b22222;stroke:#b22222;" x="731.144498" xlink:href="#m77ef0d9c93" y="492.48"/>
     <use style="fill:#b22222;stroke:#b22222;" x="715.125359" xlink:href="#m77ef0d9c93" y="478.425711"/>
     <use style="fill:#b22222;stroke:#b22222;" x="699.10622" xlink:href="#m77ef0d9c93" y="462.777302"/>
     <use style="fill:#b22222;stroke:#b22222;" x="683.087081" xlink:href="#m77ef0d9c93" y="489.844821"/>
     <use style="fill:#b22222;stroke:#b22222;" x="667.067943" xlink:href="#m77ef0d9c93" y="464.891952"/>
     <use style="fill:#b22222;stroke:#b22222;" x="651.048804" xlink:href="#m77ef0d9c93" y="450.837663"/>
     <use style="fill:#b22222;stroke:#b22222;" x="635.029665" xlink:href="#m77ef0d9c93" y="467.006601"/>
     <use style="fill:#b22222;stroke:#b22222;" x="619.010526" xlink:href="#m77ef0d9c93" y="391.627464"/>
     <use style="fill:#b22222;stroke:#b22222;" x="602.991388" xlink:href="#m77ef0d9c93" y="420.441275"/>
     <use style="fill:#b22222;stroke:#b22222;" x="586.972249" xlink:href="#m77ef0d9c93" y="406.907516"/>
     <use style="fill:#b22222;stroke:#b22222;" x="570.95311" xlink:href="#m77ef0d9c93" y="422.555925"/>
     <use style="fill:#b22222;stroke:#b22222;" x="554.933971" xlink:href="#m77ef0d9c93" y="397.603056"/>
     <use style="fill:#b22222;stroke:#b22222;" x="538.914833" xlink:href="#m77ef0d9c93" y="372.650187"/>
     <use style="fill:#b22222;stroke:#b22222;" x="522.895694" xlink:href="#m77ef0d9c93" y="399.717706"/>
     <use style="fill:#b22222;stroke:#b22222;" x="506.876555" xlink:href="#m77ef0d9c93" y="372.129657"/>
     <use style="fill:#b22222;stroke:#b22222;" x="490.857416" xlink:href="#m77ef0d9c93" y="349.443609"/>
     <use style="fill:#b22222;stroke:#b22222;" x="474.838278" xlink:href="#m77ef0d9c93" y="307.2391"/>
     <use style="fill:#b22222;stroke:#b22222;" x="458.819139" xlink:href="#m77ef0d9c93" y="325.171331"/>
     <use style="fill:#b22222;stroke:#b22222;" x="442.8" xlink:href="#m77ef0d9c93" y="301.20348"/>
     <use style="fill:#b22222;stroke:#b22222;" x="426.780861" xlink:href="#m77ef0d9c93" y="274.13596"/>
     <use style="fill:#b22222;stroke:#b22222;" x="410.761722" xlink:href="#m77ef0d9c93" y="287.149191"/>
     <use style="fill:#b22222;stroke:#b22222;" x="394.742584" xlink:href="#m77ef0d9c93" y="287.66972"/>
     <use style="fill:#b22222;stroke:#b22222;" x="378.723445" xlink:href="#m77ef0d9c93" y="315.257769"/>
     <use style="fill:#b22222;stroke:#b22222;" x="362.704306" xlink:href="#m77ef0d9c93" y="312.622589"/>
     <use style="fill:#b22222;stroke:#b22222;" x="346.685167" xlink:href="#m77ef0d9c93" y="313.143119"/>
     <use style="fill:#b22222;stroke:#b22222;" x="330.666029" xlink:href="#m77ef0d9c93" y="326.676878"/>
     <use style="fill:#b22222;stroke:#b22222;" x="314.64689" xlink:href="#m77ef0d9c93" y="326.676878"/>
     <use style="fill:#b22222;stroke:#b22222;" x="298.627751" xlink:href="#m77ef0d9c93" y="289.78437"/>
     <use style="fill:#b22222;stroke:#b22222;" x="282.608612" xlink:href="#m77ef0d9c93" y="305.43278"/>
     <use style="fill:#b22222;stroke:#b22222;" x="266.589474" xlink:href="#m77ef0d9c93" y="303.669487"/>
     <use style="fill:#b22222;stroke:#b22222;" x="250.570335" xlink:href="#m77ef0d9c93" y="272.491172"/>
     <use style="fill:#b22222;stroke:#b22222;" x="234.551196" xlink:href="#m77ef0d9c93" y="259.989362"/>
     <use style="fill:#b22222;stroke:#b22222;" x="218.532057" xlink:href="#m77ef0d9c93" y="193.166424"/>
     <use style="fill:#b22222;stroke:#b22222;" x="202.512919" xlink:href="#m77ef0d9c93" y="227.462876"/>
     <use style="fill:#b22222;stroke:#b22222;" x="186.49378" xlink:href="#m77ef0d9c93" y="184.79241"/>
     <use style="fill:#b22222;stroke:#b22222;" x="170.474641" xlink:href="#m77ef0d9c93" y="185.271297"/>
     <use style="fill:#b22222;stroke:#b22222;" x="154.455502" xlink:href="#m77ef0d9c93" y="229.303031"/>
     <use style="fill:#b22222;stroke:#b22222;" x="138.436364" xlink:href="#m77ef0d9c93" y="229.303031"/>
    </g>
   </g>
   <g id="patch_3">
    <path d="M 108 512.64 
L 108 69.12 
" style="fill:none;stroke:#000000;stroke-linecap:square;stroke-linejoin:miter;stroke-width:0.8;"/>
   </g>
   <g id="patch_4">
    <path d="M 777.6 512.64 
L 777.6 69.12 
" style="fill:none;stroke:#000000;stroke-linecap:square;stroke-linejoin:miter;stroke-width:0.8;"/>
   </g>
   <g id="patch_5">
    <path d="M 108 512.64 
L 777.6 512.64 
" style="fill:none;stroke:#000000;stroke-linecap:square;stroke-linejoin:miter;stroke-width:0.8;"/>
   </g>
   <g id="patch_6">
    <path d="M 108 69.12 
L 777.6 69.12 
" style="fill:none;stroke:#000000;stroke-linecap:square;stroke-linejoin:miter;stroke-width:0.8;"/>
   </g>
  </g>
 </g>
 <defs>
  <clipPath id="p2d4945970f">
   <rect height="443.52" width="669.6" x="108" y="69.12"/>
  </clipPath>
 </defs>
</svg>
